<svg xmlns="http://www.w3.org/2000/svg" xmlns:xlink="http://www.w3.org/1999/xlink" zoomAndPan="magnify" viewBox="44 298 498 185" preserveAspectRatio="xMidYMid meet" version="1.0"><defs><g/><clipPath id="5c0cd5f992"><path d="M 0.335938 0.253906 L 495.253906 0.253906 L 495.253906 182.25 L 0.335938 182.25 Z M 0.335938 0.253906 " clip-rule="nonzero"/></clipPath><clipPath id="09bbe45834"><path d="M 15 123 L 490 123 L 490 182.25 L 15 182.25 Z M 15 123 " clip-rule="nonzero"/></clipPath><clipPath id="9cfc9a9e56"><path d="M 474 47 L 474.738281 47 L 474.738281 48 L 474 48 Z M 474 47 " clip-rule="nonzero"/></clipPath><clipPath id="405796db19"><rect x="0" width="475" y="0" height="60"/></clipPath><clipPath id="aee054acf8"><rect x="0" width="496" y="0" height="183"/></clipPath><clipPath id="3b440b7040"><rect x="0" width="496" y="0" height="183"/></clipPath></defs><g transform="matrix(1, 0, 0, 1, 45, 299)"><g clip-path="url(#3b440b7040)"><g clip-path="url(#5c0cd5f992)"><g transform="matrix(1, 0, 0, 1, 0.000000000000007105, 0)"><g clip-path="url(#aee054acf8)"><g fill="#000000" fill-opacity="1"><g transform="translate(0.585482, 104.084829)"><g><path d="M 10.40625 0 L 10.40625 -90.984375 L 25.484375 -90.984375 L 25.484375 -53.03125 L 148.703125 -53.03125 L 148.703125 -90.984375 L 163.78125 -90.984375 L 163.78125 0 L 148.703125 0 L 148.703125 -37.953125 L 25.484375 -37.953125 L 25.484375 0 Z M 10.40625 0 "/></g></g></g><g fill="#000000" fill-opacity="1"><g transform="translate(165.405359, 104.084829)"><g><path d="M 148.703125 -64.46875 C 148.703125 -67.757812 147.617188 -70.488281 145.453125 -72.65625 C 143.285156 -74.820312 140.554688 -75.90625 137.265625 -75.90625 L 36.921875 -75.90625 C 33.710938 -75.90625 31.003906 -74.820312 28.796875 -72.65625 C 26.585938 -70.488281 25.484375 -67.757812 25.484375 -64.46875 L 25.484375 -53.03125 L 148.703125 -53.03125 Z M 10.40625 0 L 10.40625 -64.46875 C 10.40625 -69.582031 11.550781 -74.128906 13.84375 -78.109375 C 16.132812 -82.097656 19.273438 -85.238281 23.265625 -87.53125 C 27.253906 -89.832031 31.804688 -90.984375 36.921875 -90.984375 L 137.265625 -90.984375 C 142.378906 -90.984375 146.925781 -89.832031 150.90625 -87.53125 C 154.894531 -85.238281 158.035156 -82.097656 160.328125 -78.109375 C 162.628906 -74.128906 163.78125 -69.582031 163.78125 -64.46875 L 163.78125 0 L 148.703125 0 L 148.703125 -37.953125 L 25.484375 -37.953125 L 25.484375 0 Z M 10.40625 0 "/></g></g></g><g fill="#000000" fill-opacity="1"><g transform="translate(330.225236, 104.084829)"><g><path d="M 25.484375 -26.515625 C 25.484375 -23.304688 26.585938 -20.597656 28.796875 -18.390625 C 31.003906 -16.179688 33.710938 -15.078125 36.921875 -15.078125 L 163.78125 -15.078125 L 163.78125 0 L 36.921875 0 C 31.804688 0 27.253906 -1.144531 23.265625 -3.4375 C 19.273438 -5.738281 16.132812 -8.878906 13.84375 -12.859375 C 11.550781 -16.847656 10.40625 -21.398438 10.40625 -26.515625 L 10.40625 -64.46875 C 10.40625 -69.582031 11.550781 -74.128906 13.84375 -78.109375 C 16.132812 -82.097656 19.273438 -85.238281 23.265625 -87.53125 C 27.253906 -89.832031 31.804688 -90.984375 36.921875 -90.984375 L 163.78125 -90.984375 L 163.78125 -75.90625 L 36.921875 -75.90625 C 33.710938 -75.90625 31.003906 -74.820312 28.796875 -72.65625 C 26.585938 -70.488281 25.484375 -67.757812 25.484375 -64.46875 Z M 25.484375 -26.515625 "/></g></g></g><g clip-path="url(#09bbe45834)"><g transform="matrix(1, 0, 0, 1, 15, 123)"><g clip-path="url(#405796db19)"><g fill="#000000" fill-opacity="1"><g transform="translate(0.453935, 47.454592)"><g><path d="M 2.890625 -32.6875 L 9.34375 -32.6875 L 9.34375 -19.1875 L 24.5625 -19.1875 L 24.5625 -32.6875 L 31.015625 -32.6875 L 31.015625 0 L 24.5625 0 L 24.5625 -13.59375 L 9.34375 -13.59375 L 9.34375 0 L 2.890625 0 Z M 2.890625 -32.6875 "/></g></g></g><g fill="#000000" fill-opacity="1"><g transform="translate(34.360871, 47.454592)"><g><path d="M 14.296875 0.375 C 11.984375 0.375 9.957031 -0.113281 8.21875 -1.09375 C 6.476562 -2.070312 5.125 -3.445312 4.15625 -5.21875 C 3.1875 -7 2.703125 -9.054688 2.703125 -11.390625 L 2.703125 -32.6875 L 9.15625 -32.6875 L 9.15625 -11.578125 C 9.15625 -9.710938 9.628906 -8.203125 10.578125 -7.046875 C 11.523438 -5.898438 12.765625 -5.328125 14.296875 -5.328125 L 19.234375 -5.328125 C 20.796875 -5.328125 22.054688 -5.898438 23.015625 -7.046875 C 23.984375 -8.203125 24.46875 -9.710938 24.46875 -11.578125 L 24.46875 -32.6875 L 30.921875 -32.6875 L 30.921875 -11.390625 C 30.921875 -9.054688 30.4375 -7 29.46875 -5.21875 C 28.5 -3.445312 27.128906 -2.070312 25.359375 -1.09375 C 23.585938 -0.113281 21.546875 0.375 19.234375 0.375 Z M 14.296875 0.375 "/></g></g></g><g fill="#000000" fill-opacity="1"><g transform="translate(67.987578, 47.454592)"><g><path d="M 7.421875 0 C 6.054688 0 4.957031 -0.394531 4.125 -1.1875 C 3.300781 -1.976562 2.890625 -3.03125 2.890625 -4.34375 L 2.890625 -32.6875 L 9.34375 -32.6875 L 9.34375 -5.609375 L 27.09375 -5.609375 L 27.09375 0 Z M 7.421875 0 "/></g></g></g><g fill="#000000" fill-opacity="1"><g transform="translate(90.965529, 47.454592)"><g><path d="M 10.921875 -27.09375 L 0.5625 -27.09375 L 0.5625 -32.6875 L 27.734375 -32.6875 L 27.734375 -27.09375 L 17.375 -27.09375 L 17.375 0 L 10.921875 0 Z M 10.921875 -27.09375 "/></g></g></g><g fill="#000000" fill-opacity="1"><g transform="translate(119.268009, 47.454592)"><g/></g></g><g fill="#000000" fill-opacity="1"><g transform="translate(132.718699, 47.454592)"><g><path d="M 22.046875 -7.609375 L 9.8125 -7.609375 L 6.90625 0 L 0.1875 0 L 12.984375 -32.6875 L 15.875 -32.6875 C 17.90625 -32.6875 19.273438 -31.753906 19.984375 -29.890625 L 31.625 0 L 24.890625 0 Z M 11.53125 -13.03125 L 20.3125 -13.03125 L 15.96875 -24.796875 L 15.921875 -24.796875 Z M 11.53125 -13.03125 "/></g></g></g><g fill="#000000" fill-opacity="1"><g transform="translate(164.523964, 47.454592)"><g><path d="M 3.359375 -32.6875 L 9.8125 -32.6875 L 9.8125 0 L 3.359375 0 Z M 3.359375 -32.6875 "/></g></g></g><g fill="#000000" fill-opacity="1"><g transform="translate(177.694433, 47.454592)"><g/></g></g><g fill="#000000" fill-opacity="1"><g transform="translate(191.145116, 47.454592)"><g><path d="M 14.015625 0.375 C 11.617188 0.375 9.507812 -0.132812 7.6875 -1.15625 C 5.863281 -2.1875 4.453125 -3.644531 3.453125 -5.53125 C 2.460938 -7.414062 1.96875 -9.585938 1.96875 -12.046875 L 1.96875 -20.640625 C 1.96875 -23.097656 2.472656 -25.269531 3.484375 -27.15625 C 4.492188 -29.039062 5.925781 -30.492188 7.78125 -31.515625 C 9.632812 -32.546875 11.773438 -33.0625 14.203125 -33.0625 L 19.140625 -33.0625 C 21.484375 -33.0625 23.539062 -32.5625 25.3125 -31.5625 C 27.082031 -30.570312 28.457031 -29.179688 29.4375 -27.390625 C 30.425781 -25.597656 30.921875 -23.519531 30.921875 -21.15625 L 24.5625 -21.15625 C 24.5625 -23.019531 24.0625 -24.519531 23.0625 -25.65625 C 22.070312 -26.800781 20.765625 -27.375 19.140625 -27.375 L 14.203125 -27.375 C 12.453125 -27.375 11.046875 -26.722656 9.984375 -25.421875 C 8.929688 -24.128906 8.40625 -22.441406 8.40625 -20.359375 L 8.40625 -12.328125 C 8.40625 -10.242188 8.914062 -8.554688 9.9375 -7.265625 C 10.96875 -5.972656 12.328125 -5.328125 14.015625 -5.328125 L 19.0625 -5.328125 C 20.707031 -5.328125 22.050781 -5.960938 23.09375 -7.234375 C 24.132812 -8.515625 24.65625 -10.195312 24.65625 -12.28125 L 31.015625 -12.28125 C 31.015625 -9.757812 30.515625 -7.539062 29.515625 -5.625 C 28.515625 -3.707031 27.113281 -2.226562 25.3125 -1.1875 C 23.507812 -0.144531 21.425781 0.375 19.0625 0.375 Z M 14.015625 0.375 "/></g></g></g><g fill="#000000" fill-opacity="1"><g transform="translate(223.277304, 47.454592)"><g><path d="M 14.4375 0.375 C 11.96875 0.375 9.789062 -0.144531 7.90625 -1.1875 C 6.03125 -2.226562 4.570312 -3.691406 3.53125 -5.578125 C 2.488281 -7.460938 1.96875 -9.648438 1.96875 -12.140625 L 1.96875 -20.546875 C 1.96875 -23.035156 2.488281 -25.222656 3.53125 -27.109375 C 4.570312 -28.992188 6.03125 -30.457031 7.90625 -31.5 C 9.789062 -32.539062 11.96875 -33.0625 14.4375 -33.0625 L 19.375 -33.0625 C 21.84375 -33.0625 24.015625 -32.539062 25.890625 -31.5 C 27.773438 -30.457031 29.238281 -28.992188 30.28125 -27.109375 C 31.320312 -25.222656 31.84375 -23.035156 31.84375 -20.546875 L 31.84375 -12.140625 C 31.84375 -9.648438 31.320312 -7.460938 30.28125 -5.578125 C 29.238281 -3.691406 27.773438 -2.226562 25.890625 -1.1875 C 24.015625 -0.144531 21.84375 0.375 19.375 0.375 Z M 19.375 -5.328125 C 21.1875 -5.328125 22.644531 -5.976562 23.75 -7.28125 C 24.851562 -8.59375 25.40625 -10.304688 25.40625 -12.421875 L 25.40625 -20.265625 C 25.40625 -22.378906 24.851562 -24.09375 23.75 -25.40625 C 22.644531 -26.71875 21.1875 -27.375 19.375 -27.375 L 14.4375 -27.375 C 12.625 -27.375 11.164062 -26.71875 10.0625 -25.40625 C 8.957031 -24.09375 8.40625 -22.378906 8.40625 -20.265625 L 8.40625 -12.421875 C 8.40625 -10.304688 8.957031 -8.59375 10.0625 -7.28125 C 11.164062 -5.976562 12.625 -5.328125 14.4375 -5.328125 Z M 19.375 -5.328125 "/></g></g></g><g fill="#000000" fill-opacity="1"><g transform="translate(257.090836, 47.454592)"><g><path d="M 7.421875 0 C 6.054688 0 4.957031 -0.394531 4.125 -1.1875 C 3.300781 -1.976562 2.890625 -3.03125 2.890625 -4.34375 L 2.890625 -32.6875 L 9.34375 -32.6875 L 9.34375 -5.609375 L 27.09375 -5.609375 L 27.09375 0 Z M 7.421875 0 "/></g></g></g><g fill="#000000" fill-opacity="1"><g transform="translate(284.55266, 47.454592)"><g><path d="M 7.421875 0 C 6.054688 0 4.957031 -0.394531 4.125 -1.1875 C 3.300781 -1.976562 2.890625 -3.03125 2.890625 -4.34375 L 2.890625 -32.6875 L 9.34375 -32.6875 L 9.34375 -5.609375 L 27.09375 -5.609375 L 27.09375 0 Z M 7.421875 0 "/></g></g></g><g fill="#000000" fill-opacity="1"><g transform="translate(312.014452, 47.454592)"><g><path d="M 7.421875 0 C 6.085938 0 5 -0.398438 4.15625 -1.203125 C 3.3125 -2.015625 2.890625 -3.078125 2.890625 -4.390625 L 2.890625 -32.6875 L 27.828125 -32.6875 L 27.828125 -27.09375 L 9.34375 -27.09375 L 9.34375 -19.515625 L 26.4375 -19.515625 L 26.4375 -13.921875 L 9.34375 -13.921875 L 9.34375 -5.609375 L 27.828125 -5.609375 L 27.828125 0 Z M 7.421875 0 "/></g></g></g><g fill="#000000" fill-opacity="1"><g transform="translate(341.064183, 47.454592)"><g><path d="M 14.015625 0.375 C 11.617188 0.375 9.507812 -0.132812 7.6875 -1.15625 C 5.863281 -2.1875 4.453125 -3.644531 3.453125 -5.53125 C 2.460938 -7.414062 1.96875 -9.585938 1.96875 -12.046875 L 1.96875 -20.640625 C 1.96875 -23.097656 2.472656 -25.269531 3.484375 -27.15625 C 4.492188 -29.039062 5.925781 -30.492188 7.78125 -31.515625 C 9.632812 -32.546875 11.773438 -33.0625 14.203125 -33.0625 L 19.140625 -33.0625 C 21.484375 -33.0625 23.539062 -32.5625 25.3125 -31.5625 C 27.082031 -30.570312 28.457031 -29.179688 29.4375 -27.390625 C 30.425781 -25.597656 30.921875 -23.519531 30.921875 -21.15625 L 24.5625 -21.15625 C 24.5625 -23.019531 24.0625 -24.519531 23.0625 -25.65625 C 22.070312 -26.800781 20.765625 -27.375 19.140625 -27.375 L 14.203125 -27.375 C 12.453125 -27.375 11.046875 -26.722656 9.984375 -25.421875 C 8.929688 -24.128906 8.40625 -22.441406 8.40625 -20.359375 L 8.40625 -12.328125 C 8.40625 -10.242188 8.914062 -8.554688 9.9375 -7.265625 C 10.96875 -5.972656 12.328125 -5.328125 14.015625 -5.328125 L 19.0625 -5.328125 C 20.707031 -5.328125 22.050781 -5.960938 23.09375 -7.234375 C 24.132812 -8.515625 24.65625 -10.195312 24.65625 -12.28125 L 31.015625 -12.28125 C 31.015625 -9.757812 30.515625 -7.539062 29.515625 -5.625 C 28.515625 -3.707031 27.113281 -2.226562 25.3125 -1.1875 C 23.507812 -0.144531 21.425781 0.375 19.0625 0.375 Z M 14.015625 0.375 "/></g></g></g><g fill="#000000" fill-opacity="1"><g transform="translate(372.635897, 47.454592)"><g><path d="M 10.921875 -27.09375 L 0.5625 -27.09375 L 0.5625 -32.6875 L 27.734375 -32.6875 L 27.734375 -27.09375 L 17.375 -27.09375 L 17.375 0 L 10.921875 0 Z M 10.921875 -27.09375 "/></g></g></g><g fill="#000000" fill-opacity="1"><g transform="translate(400.938392, 47.454592)"><g><path d="M 3.359375 -32.6875 L 9.8125 -32.6875 L 9.8125 0 L 3.359375 0 Z M 3.359375 -32.6875 "/></g></g></g><g fill="#000000" fill-opacity="1"><g transform="translate(414.10883, 47.454592)"><g><path d="M 15.3125 0 C 13.507812 0 12.21875 -0.992188 11.4375 -2.984375 L 0.1875 -32.6875 L 6.90625 -32.6875 L 15.5 -8.171875 L 15.59375 -8.171875 L 24.234375 -32.6875 L 30.921875 -32.6875 L 18.359375 0 Z M 15.3125 0 "/></g></g></g><g fill="#000000" fill-opacity="1"><g transform="translate(445.213554, 47.454592)"><g><path d="M 7.421875 0 C 6.085938 0 5 -0.398438 4.15625 -1.203125 C 3.3125 -2.015625 2.890625 -3.078125 2.890625 -4.390625 L 2.890625 -32.6875 L 27.828125 -32.6875 L 27.828125 -27.09375 L 9.34375 -27.09375 L 9.34375 -19.515625 L 26.4375 -19.515625 L 26.4375 -13.921875 L 9.34375 -13.921875 L 9.34375 -5.609375 L 27.828125 -5.609375 L 27.828125 0 Z M 7.421875 0 "/></g></g></g><g clip-path="url(#9cfc9a9e56)"><g fill="#000000" fill-opacity="1"><g transform="translate(474.543948, 47.454592)"><g/></g></g></g></g></g></g></g></g></g></g></g></svg>