<svg xmlns="http://www.w3.org/2000/svg" xmlns:xlink="http://www.w3.org/1999/xlink" zoomAndPan="magnify" viewBox="15 321 549 95" preserveAspectRatio="xMidYMid meet" version="1.0"><defs><g/><clipPath id="0ba10998fb"><path d="M 0.0820312 0.753906 L 340 0.753906 L 340 90 L 0.0820312 90 Z M 0.0820312 0.753906 " clip-rule="nonzero"/></clipPath><clipPath id="f34ee90a7b"><rect x="0" width="340" y="0" height="90"/></clipPath><clipPath id="a578413e4b"><rect x="0" width="547" y="0" height="93"/></clipPath></defs><g transform="matrix(1, 0, 0, 1, 16, 322)"><g clip-path="url(#a578413e4b)"><g clip-path="url(#0ba10998fb)"><g><g clip-path="url(#f34ee90a7b)"><g fill="#000000" fill-opacity="1"><g transform="translate(0.43576, 71.932593)"><g><path d="M 7.125 0 L 7.125 -62.28125 L 17.4375 -62.28125 L 17.4375 -36.296875 L 101.78125 -36.296875 L 101.78125 -62.28125 L 112.09375 -62.28125 L 112.09375 0 L 101.78125 0 L 101.78125 -25.984375 L 17.4375 -25.984375 L 17.4375 0 Z M 7.125 0 "/></g></g></g><g fill="#000000" fill-opacity="1"><g transform="translate(113.254742, 71.932593)"><g><path d="M 101.78125 -44.125 C 101.78125 -46.382812 101.035156 -48.253906 99.546875 -49.734375 C 98.066406 -51.210938 96.203125 -51.953125 93.953125 -51.953125 L 25.265625 -51.953125 C 23.066406 -51.953125 21.210938 -51.210938 19.703125 -49.734375 C 18.191406 -48.253906 17.4375 -46.382812 17.4375 -44.125 L 17.4375 -36.296875 L 101.78125 -36.296875 Z M 7.125 0 L 7.125 -44.125 C 7.125 -47.625 7.90625 -50.738281 9.46875 -53.46875 C 11.039062 -56.195312 13.191406 -58.347656 15.921875 -59.921875 C 18.648438 -61.492188 21.765625 -62.28125 25.265625 -62.28125 L 93.953125 -62.28125 C 97.453125 -62.28125 100.566406 -61.492188 103.296875 -59.921875 C 106.023438 -58.347656 108.171875 -56.195312 109.734375 -53.46875 C 111.304688 -50.738281 112.09375 -47.625 112.09375 -44.125 L 112.09375 0 L 101.78125 0 L 101.78125 -25.984375 L 17.4375 -25.984375 L 17.4375 0 Z M 7.125 0 "/></g></g></g><g fill="#000000" fill-opacity="1"><g transform="translate(226.073723, 71.932593)"><g><path d="M 17.4375 -18.15625 C 17.4375 -15.957031 18.191406 -14.101562 19.703125 -12.59375 C 21.210938 -11.082031 23.066406 -10.328125 25.265625 -10.328125 L 112.09375 -10.328125 L 112.09375 0 L 25.265625 0 C 21.765625 0 18.648438 -0.785156 15.921875 -2.359375 C 13.191406 -3.929688 11.039062 -6.082031 9.46875 -8.8125 C 7.90625 -11.539062 7.125 -14.65625 7.125 -18.15625 L 7.125 -44.125 C 7.125 -47.625 7.90625 -50.738281 9.46875 -53.46875 C 11.039062 -56.195312 13.191406 -58.347656 15.921875 -59.921875 C 18.648438 -61.492188 21.765625 -62.28125 25.265625 -62.28125 L 112.09375 -62.28125 L 112.09375 -51.953125 L 25.265625 -51.953125 C 23.066406 -51.953125 21.210938 -51.210938 19.703125 -49.734375 C 18.191406 -48.253906 17.4375 -46.382812 17.4375 -44.125 Z M 17.4375 -18.15625 "/></g></g></g></g></g></g><g fill="#000000" fill-opacity="1"><g transform="translate(363.878525, 69.978325)"><g><path d="M 14.59375 -60.84375 C 14.59375 -60.84375 14.59375 -60.425781 14.59375 -59.59375 L 14.59375 -54.890625 C 14.59375 -54.054688 14.296875 -53.34375 13.703125 -52.75 C 13.109375 -52.15625 12.394531 -51.859375 11.5625 -51.859375 L 7.109375 -51.859375 C 6.285156 -51.859375 5.632812 -51.617188 5.15625 -51.140625 C 4.6875 -50.671875 4.453125 -50.019531 4.453125 -49.1875 L 4.453125 -12.625 C 4.453125 -11.800781 4.6875 -11.148438 5.15625 -10.671875 C 5.632812 -10.203125 6.285156 -9.96875 7.109375 -9.96875 L 11.5625 -9.96875 C 12.394531 -9.96875 13.109375 -9.671875 13.703125 -9.078125 C 14.296875 -8.484375 14.59375 -7.769531 14.59375 -6.9375 L 14.59375 -2.671875 C 14.59375 -1.835938 14.828125 -1.179688 15.296875 -0.703125 C 15.773438 -0.234375 16.425781 0 17.25 0 L 73.828125 0 C 74.660156 0 75.3125 -0.234375 75.78125 -0.703125 C 76.257812 -1.179688 76.5 -1.835938 76.5 -2.671875 L 76.5 -6.9375 C 76.5 -7.769531 76.796875 -8.484375 77.390625 -9.078125 C 77.984375 -9.671875 78.695312 -9.96875 79.53125 -9.96875 L 83.96875 -9.96875 C 84.800781 -9.96875 85.453125 -10.203125 85.921875 -10.671875 C 86.398438 -11.148438 86.640625 -11.800781 86.640625 -12.625 L 86.640625 -49.109375 C 86.640625 -49.929688 86.398438 -50.578125 85.921875 -51.046875 C 85.453125 -51.523438 84.800781 -51.765625 83.96875 -51.765625 L 79.53125 -51.765625 C 78.695312 -51.765625 77.984375 -52.0625 77.390625 -52.65625 C 76.796875 -53.25 76.5 -53.960938 76.5 -54.796875 L 76.5 -59.59375 C 76.5 -60.425781 76.257812 -61.078125 75.78125 -61.546875 C 75.3125 -62.023438 74.660156 -62.265625 73.828125 -62.265625 L 17.25 -62.265625 C 16.425781 -62.265625 15.773438 -62.03125 15.296875 -61.5625 C 14.828125 -61.082031 14.59375 -60.84375 14.59375 -60.84375 Z M 15.75 -49.015625 C 15.75 -49.015625 16.046875 -49.3125 16.640625 -49.90625 C 17.234375 -50.5 17.941406 -50.796875 18.765625 -50.796875 L 72.3125 -50.796875 C 73.144531 -50.796875 73.859375 -50.5 74.453125 -49.90625 C 75.046875 -49.3125 75.34375 -48.597656 75.34375 -47.765625 L 75.34375 -14.140625 C 75.34375 -13.304688 75.046875 -12.59375 74.453125 -12 C 73.859375 -11.414062 73.144531 -11.125 72.3125 -11.125 L 18.765625 -11.125 C 17.941406 -11.125 17.234375 -11.414062 16.640625 -12 C 16.046875 -12.59375 15.75 -13.304688 15.75 -14.140625 L 15.75 -47.765625 C 15.75 -48.597656 15.75 -49.015625 15.75 -49.015625 Z M 15.75 -49.015625 "/></g></g></g><g fill="#000000" fill-opacity="1"><g transform="translate(454.959695, 69.978325)"><g><path d="M 14.59375 -28.109375 C 14.59375 -27.273438 14.828125 -26.617188 15.296875 -26.140625 C 15.773438 -25.671875 16.425781 -25.4375 17.25 -25.4375 L 70.8125 -25.4375 C 72.050781 -25.4375 73.113281 -24.988281 74 -24.09375 C 74.894531 -23.207031 75.34375 -22.144531 75.34375 -20.90625 L 75.34375 -11.203125 L 7.109375 -11.203125 C 6.285156 -11.203125 5.632812 -10.960938 5.15625 -10.484375 C 4.6875 -10.015625 4.453125 -9.367188 4.453125 -8.546875 L 4.453125 -2.671875 C 4.453125 -1.835938 4.6875 -1.179688 5.15625 -0.703125 C 5.632812 -0.234375 6.285156 0 7.109375 0 L 83.96875 0 C 84.800781 0 85.453125 -0.234375 85.921875 -0.703125 C 86.398438 -1.179688 86.640625 -1.835938 86.640625 -2.671875 L 86.640625 -23.921875 C 86.640625 -24.753906 86.398438 -25.40625 85.921875 -25.875 C 85.453125 -26.351562 84.800781 -26.59375 83.96875 -26.59375 L 81.03125 -26.59375 C 79.789062 -26.59375 78.722656 -27.019531 77.828125 -27.875 C 76.941406 -28.738281 76.5 -29.796875 76.5 -31.046875 L 76.5 -34.0625 C 76.5 -34.894531 76.257812 -35.546875 75.78125 -36.015625 C 75.3125 -36.492188 74.660156 -36.734375 73.828125 -36.734375 L 20.1875 -36.734375 C 18.945312 -36.734375 17.894531 -37.160156 17.03125 -38.015625 C 16.175781 -38.878906 15.75 -39.9375 15.75 -41.1875 L 15.75 -50.875 L 83.96875 -50.875 C 84.800781 -50.875 85.453125 -51.109375 85.921875 -51.578125 C 86.398438 -52.054688 86.640625 -52.710938 86.640625 -53.546875 L 86.640625 -59.59375 C 86.640625 -60.425781 86.398438 -61.078125 85.921875 -61.546875 C 85.453125 -62.023438 84.800781 -62.265625 83.96875 -62.265625 L 7.109375 -62.265625 C 6.285156 -62.265625 5.632812 -62.023438 5.15625 -61.546875 C 4.6875 -61.078125 4.453125 -60.425781 4.453125 -59.59375 L 4.453125 -38.25 C 4.453125 -37.414062 4.6875 -36.757812 5.15625 -36.28125 C 5.632812 -35.8125 6.285156 -35.578125 7.109375 -35.578125 L 10.046875 -35.578125 C 11.296875 -35.578125 12.363281 -35.128906 13.25 -34.234375 C 14.144531 -33.347656 14.59375 -32.285156 14.59375 -31.046875 Z M 14.59375 -28.109375 "/></g></g></g></g></g></svg>