<svg xmlns="http://www.w3.org/2000/svg" xmlns:xlink="http://www.w3.org/1999/xlink" zoomAndPan="magnify" viewBox="44 298 498 133" preserveAspectRatio="xMidYMid meet" version="1.0"><defs><g/><clipPath id="689bc53ad3"><path d="M 0.335938 0.253906 L 495.253906 0.253906 L 495.253906 130.457031 L 0.335938 130.457031 Z M 0.335938 0.253906 " clip-rule="nonzero"/></clipPath><clipPath id="a67f5c8f42"><rect x="0" width="496" y="0" height="131"/></clipPath><clipPath id="e8667f052c"><rect x="0" width="496" y="0" height="131"/></clipPath></defs><g transform="matrix(1, 0, 0, 1, 45, 299)"><g clip-path="url(#e8667f052c)"><g clip-path="url(#689bc53ad3)"><g transform="matrix(1, 0, 0, 1, 0.000000000000007105, 0)"><g clip-path="url(#a67f5c8f42)"><g fill="#000000" fill-opacity="1"><g transform="translate(0.585482, 104.084829)"><g><path d="M 10.40625 0 L 10.40625 -90.984375 L 25.484375 -90.984375 L 25.484375 -53.03125 L 148.703125 -53.03125 L 148.703125 -90.984375 L 163.78125 -90.984375 L 163.78125 0 L 148.703125 0 L 148.703125 -37.953125 L 25.484375 -37.953125 L 25.484375 0 Z M 10.40625 0 "/></g></g></g><g fill="#000000" fill-opacity="1"><g transform="translate(165.405359, 104.084829)"><g><path d="M 148.703125 -64.46875 C 148.703125 -67.757812 147.617188 -70.488281 145.453125 -72.65625 C 143.285156 -74.820312 140.554688 -75.90625 137.265625 -75.90625 L 36.921875 -75.90625 C 33.710938 -75.90625 31.003906 -74.820312 28.796875 -72.65625 C 26.585938 -70.488281 25.484375 -67.757812 25.484375 -64.46875 L 25.484375 -53.03125 L 148.703125 -53.03125 Z M 10.40625 0 L 10.40625 -64.46875 C 10.40625 -69.582031 11.550781 -74.128906 13.84375 -78.109375 C 16.132812 -82.097656 19.273438 -85.238281 23.265625 -87.53125 C 27.253906 -89.832031 31.804688 -90.984375 36.921875 -90.984375 L 137.265625 -90.984375 C 142.378906 -90.984375 146.925781 -89.832031 150.90625 -87.53125 C 154.894531 -85.238281 158.035156 -82.097656 160.328125 -78.109375 C 162.628906 -74.128906 163.78125 -69.582031 163.78125 -64.46875 L 163.78125 0 L 148.703125 0 L 148.703125 -37.953125 L 25.484375 -37.953125 L 25.484375 0 Z M 10.40625 0 "/></g></g></g><g fill="#000000" fill-opacity="1"><g transform="translate(330.225236, 104.084829)"><g><path d="M 25.484375 -26.515625 C 25.484375 -23.304688 26.585938 -20.597656 28.796875 -18.390625 C 31.003906 -16.179688 33.710938 -15.078125 36.921875 -15.078125 L 163.78125 -15.078125 L 163.78125 0 L 36.921875 0 C 31.804688 0 27.253906 -1.144531 23.265625 -3.4375 C 19.273438 -5.738281 16.132812 -8.878906 13.84375 -12.859375 C 11.550781 -16.847656 10.40625 -21.398438 10.40625 -26.515625 L 10.40625 -64.46875 C 10.40625 -69.582031 11.550781 -74.128906 13.84375 -78.109375 C 16.132812 -82.097656 19.273438 -85.238281 23.265625 -87.53125 C 27.253906 -89.832031 31.804688 -90.984375 36.921875 -90.984375 L 163.78125 -90.984375 L 163.78125 -75.90625 L 36.921875 -75.90625 C 33.710938 -75.90625 31.003906 -74.820312 28.796875 -72.65625 C 26.585938 -70.488281 25.484375 -67.757812 25.484375 -64.46875 Z M 25.484375 -26.515625 "/></g></g></g></g></g></g></g></g></svg>